<svg width="32" height="28" viewBox="0 0 32 28" fill="none" xmlns="http://www.w3.org/2000/svg">
<path d="M26.5137 9.3211C25.5484 9.32382 24.6076 9.62504 23.8202 10.1835C23.0328 10.7419 22.4374 11.5302 22.1156 12.4404H1.55963C1.14599 12.4404 0.749293 12.6047 0.456806 12.8972C0.164318 13.1897 0 13.5864 0 14C0 14.4136 0.164318 14.8103 0.456806 15.1028C0.749293 15.3953 1.14599 15.5596 1.55963 15.5596H22.1156C22.4017 16.3689 22.9049 17.0838 23.5702 17.6263C24.2354 18.1687 25.037 18.5176 25.8873 18.635C26.7376 18.7523 27.6038 18.6335 28.3911 18.2915C29.1784 17.9495 29.8564 17.3975 30.351 16.696C30.8456 15.9944 31.1376 15.1704 31.1952 14.314C31.2528 13.4575 31.0737 12.6018 30.6775 11.8403C30.2814 11.0789 29.6833 10.4411 28.9489 9.99678C28.2146 9.55245 27.3721 9.31869 26.5137 9.3211ZM26.5137 15.5596C26.2053 15.5596 25.9037 15.4682 25.6473 15.2968C25.3908 15.1254 25.1909 14.8818 25.0728 14.5968C24.9548 14.3119 24.9239 13.9983 24.9841 13.6957C25.0443 13.3932 25.1928 13.1153 25.4109 12.8972C25.629 12.6791 25.9069 12.5305 26.2095 12.4703C26.512 12.4102 26.8256 12.441 27.1106 12.5591C27.3956 12.6771 27.6392 12.877 27.8105 13.1335C27.9819 13.39 28.0734 13.6915 28.0734 14C28.0734 14.4136 27.9091 14.8103 27.6166 15.1028C27.3241 15.3953 26.9274 15.5596 26.5137 15.5596ZM1.55963 6.20184H3.4C3.72784 7.1051 4.32584 7.88552 5.11273 8.43704C5.89962 8.98855 6.83724 9.28442 7.79816 9.28442C8.75908 9.28442 9.6967 8.98855 10.4836 8.43704C11.2705 7.88552 11.8685 7.1051 12.1963 6.20184H29.633C30.0466 6.20184 30.4433 6.03752 30.7358 5.74503C31.0283 5.45255 31.1926 5.05585 31.1926 4.64221C31.1926 4.22857 31.0283 3.83187 30.7358 3.53938C30.4433 3.24689 30.0466 3.08258 29.633 3.08258H12.1963C11.8685 2.17931 11.2705 1.39889 10.4836 0.847377C9.6967 0.295862 8.75908 0 7.79816 0C6.83724 0 5.89962 0.295862 5.11273 0.847377C4.32584 1.39889 3.72784 2.17931 3.4 3.08258H1.55963C1.14599 3.08258 0.749293 3.24689 0.456806 3.53938C0.164318 3.83187 0 4.22857 0 4.64221C0 5.05585 0.164318 5.45255 0.456806 5.74503C0.749293 6.03752 1.14599 6.20184 1.55963 6.20184ZM7.79816 3.08258C8.10663 3.08258 8.40816 3.17405 8.66464 3.34542C8.92112 3.5168 9.12103 3.76038 9.23907 4.04536C9.35712 4.33035 9.388 4.64394 9.32782 4.94648C9.26765 5.24902 9.1191 5.52692 8.90099 5.74503C8.68287 5.96315 8.40497 6.11169 8.10243 6.17187C7.79989 6.23205 7.4863 6.20117 7.20131 6.08312C6.91633 5.96508 6.67275 5.76517 6.50137 5.50869C6.33 5.25221 6.23853 4.95067 6.23853 4.64221C6.23853 4.22857 6.40285 3.83187 6.69533 3.53938C6.98782 3.24689 7.38452 3.08258 7.79816 3.08258ZM29.633 21.7982H18.4348C18.107 20.8949 17.509 20.1145 16.7221 19.563C15.9352 19.0114 14.9976 18.7156 14.0367 18.7156C13.0758 18.7156 12.1381 19.0114 11.3513 19.563C10.5644 20.1145 9.96637 20.8949 9.63853 21.7982H1.55963C1.14599 21.7982 0.749293 21.9625 0.456806 22.255C0.164318 22.5475 0 22.9442 0 23.3578C0 23.7714 0.164318 24.1681 0.456806 24.4606C0.749293 24.7531 1.14599 24.9174 1.55963 24.9174H9.63853C9.96637 25.8207 10.5644 26.6011 11.3513 27.1526C12.1381 27.7041 13.0758 28 14.0367 28C14.9976 28 15.9352 27.7041 16.7221 27.1526C17.509 26.6011 18.107 25.8207 18.4348 24.9174H29.633C30.0466 24.9174 30.4433 24.7531 30.7358 24.4606C31.0283 24.1681 31.1926 23.7714 31.1926 23.3578C31.1926 22.9442 31.0283 22.5475 30.7358 22.255C30.4433 21.9625 30.0466 21.7982 29.633 21.7982ZM14.0367 24.9174C13.7282 24.9174 13.4267 24.826 13.1702 24.6546C12.9137 24.4832 12.7138 24.2396 12.5958 23.9546C12.4777 23.6697 12.4468 23.3561 12.507 23.0535C12.5672 22.751 12.7157 22.4731 12.9339 22.255C13.152 22.0368 13.4299 21.8883 13.7324 21.8281C14.035 21.7679 14.3485 21.7988 14.6335 21.9169C14.9185 22.0349 15.1621 22.2348 15.3335 22.4913C15.5048 22.7478 15.5963 23.0493 15.5963 23.3578C15.5963 23.7714 15.432 24.1681 15.1395 24.4606C14.847 24.7531 14.4503 24.9174 14.0367 24.9174Z" fill="black"/>
</svg>
