<svg width="21" height="25" viewBox="0 0 21 25" fill="none" xmlns="http://www.w3.org/2000/svg">
<path d="M18 2.25H13.2975C12.825 0.945 11.5875 0 10.125 0C8.6625 0 7.425 0.945 6.9525 2.25H2.25C1.0125 2.25 0 3.2625 0 4.5V22.5C0 23.7375 1.0125 24.75 2.25 24.75H18C19.2375 24.75 20.25 23.7375 20.25 22.5V4.5C20.25 3.2625 19.2375 2.25 18 2.25ZM10.125 2.25C10.7438 2.25 11.25 2.75625 11.25 3.375C11.25 3.99375 10.7438 4.5 10.125 4.5C9.50625 4.5 9 3.99375 9 3.375C9 2.75625 9.50625 2.25 10.125 2.25ZM18 22.5H2.25V4.5H4.5V7.875H15.75V4.5H18V22.5Z" fill="#763EEF"/>
</svg>
