<svg width="34" height="34" viewBox="0 0 34 34" fill="none" xmlns="http://www.w3.org/2000/svg">
<g clip-path="url(#clip0_663_132)">
<path d="M13.8908 21.6164L30.9696 4.53009C31.1398 4.39275 31.2537 4.19768 31.2896 3.98192C31.3255 3.76616 31.2809 3.54473 31.1643 3.35967C31.0477 3.1746 30.8672 3.03879 30.6571 2.97802C30.447 2.91724 30.2219 2.93574 30.0245 3.02998L0.584856 14.0483C0.422069 14.1095 0.280704 14.2169 0.178131 14.3573C0.0755586 14.4978 0.016246 14.6651 0.00748205 14.8388C-0.00128195 15.0125 0.0408844 15.185 0.1288 15.335C0.216715 15.4851 0.34655 15.6061 0.50235 15.6834L12.8633 21.7589C13.0283 21.844 13.2157 21.8761 13.3996 21.8505C13.5836 21.825 13.7552 21.7432 13.8908 21.6164ZM15.3909 23.1165L32.4697 6.0302C32.607 5.85998 32.8021 5.74611 33.0179 5.71021C33.2336 5.67431 33.4551 5.71889 33.6401 5.83548C33.8252 5.95207 33.961 6.13255 34.0218 6.34267C34.0825 6.55278 34.0641 6.77789 33.9698 6.97527L22.959 36.4224C22.899 36.5874 22.7916 36.7309 22.6504 36.8352C22.5092 36.9394 22.3404 36.9997 22.1651 37.0086C21.9897 37.0174 21.8157 36.9743 21.6648 36.8847C21.5138 36.7951 21.3926 36.663 21.3164 36.5049L15.2484 24.144C15.1622 23.9793 15.1295 23.7916 15.1551 23.6074C15.1806 23.4232 15.2631 23.2515 15.3909 23.1165Z" fill="#70BAFF" fill-opacity="0.7"/>
</g>
<defs>
<clipPath id="clip0_663_132">
<rect width="34" height="34" fill="white"/>
</clipPath>
</defs>
</svg>
