<svg width="32" height="32" viewBox="0 0 32 32" fill="none" xmlns="http://www.w3.org/2000/svg">
<path d="M13.3333 24C13.687 24 14.0261 23.8595 14.2761 23.6095C14.5262 23.3594 14.6667 23.0203 14.6667 22.6667V14.6667C14.6667 14.313 14.5262 13.9739 14.2761 13.7238C14.0261 13.4738 13.687 13.3333 13.3333 13.3333C12.9797 13.3333 12.6406 13.4738 12.3905 13.7238C12.1405 13.9739 12 14.313 12 14.6667V22.6667C12 23.0203 12.1405 23.3594 12.3905 23.6095C12.6406 23.8595 12.9797 24 13.3333 24ZM26.6667 7.99999H21.3333V6.66666C21.3333 5.60579 20.9119 4.58837 20.1618 3.83823C19.4116 3.08808 18.3942 2.66666 17.3333 2.66666H14.6667C13.6058 2.66666 12.5884 3.08808 11.8382 3.83823C11.0881 4.58837 10.6667 5.60579 10.6667 6.66666V7.99999H5.33333C4.97971 7.99999 4.64057 8.14047 4.39052 8.39051C4.14048 8.64056 4 8.9797 4 9.33332C4 9.68694 4.14048 10.0261 4.39052 10.2761C4.64057 10.5262 4.97971 10.6667 5.33333 10.6667H6.66667V25.3333C6.66667 26.3942 7.08809 27.4116 7.83824 28.1617C8.58839 28.9119 9.6058 29.3333 10.6667 29.3333H21.3333C22.3942 29.3333 23.4116 28.9119 24.1618 28.1617C24.9119 27.4116 25.3333 26.3942 25.3333 25.3333V10.6667H26.6667C27.0203 10.6667 27.3594 10.5262 27.6095 10.2761C27.8595 10.0261 28 9.68694 28 9.33332C28 8.9797 27.8595 8.64056 27.6095 8.39051C27.3594 8.14047 27.0203 7.99999 26.6667 7.99999ZM13.3333 6.66666C13.3333 6.31303 13.4738 5.9739 13.7239 5.72385C13.9739 5.4738 14.313 5.33332 14.6667 5.33332H17.3333C17.687 5.33332 18.0261 5.4738 18.2761 5.72385C18.5262 5.9739 18.6667 6.31303 18.6667 6.66666V7.99999H13.3333V6.66666ZM22.6667 25.3333C22.6667 25.6869 22.5262 26.0261 22.2761 26.2761C22.0261 26.5262 21.687 26.6667 21.3333 26.6667H10.6667C10.313 26.6667 9.97391 26.5262 9.72386 26.2761C9.47381 26.0261 9.33333 25.6869 9.33333 25.3333V10.6667H22.6667V25.3333ZM18.6667 24C19.0203 24 19.3594 23.8595 19.6095 23.6095C19.8595 23.3594 20 23.0203 20 22.6667V14.6667C20 14.313 19.8595 13.9739 19.6095 13.7238C19.3594 13.4738 19.0203 13.3333 18.6667 13.3333C18.313 13.3333 17.9739 13.4738 17.7239 13.7238C17.4738 13.9739 17.3333 14.313 17.3333 14.6667V22.6667C17.3333 23.0203 17.4738 23.3594 17.7239 23.6095C17.9739 23.8595 18.313 24 18.6667 24Z" fill="black"/>
</svg>
